<svg xmlns="http://www.w3.org/2000/svg" width="121.417" height="40" viewBox="0 4.333 121.417 40" enable-background="new 0 4.333 121.417 40"><g fill="#fff"><path d="M28.212 23.807c0 5.85-2.59 12.094-11.544 12.094-1.177 0-3.023 0-4.437-.077v-23.17c.864-.156 3.534-.078 4.988-.078 8.128 0 10.994 6.363 10.994 11.232zM7.44 10.887c.628.314 1.02.865 1.02 1.767v23.168c0 .864-.392 1.413-1.02 1.77h9.03c11.193 0 15.826-7.5 15.826-13.784 0-3.417-2.042-12.92-15.078-12.92h-9.78zM78.037 30.937l-8.64-20.144h-5.302c.668.314 1.22 1.02 1.22 1.767v23.17c0 .86-.394 1.412-1.023 1.766h3.966c-.627-.354-1.1-.904-1.1-1.767V16.054c0-.354-.078-1.022-.078-1.022l.354 1.022 9.502 21.99 9.7-22.62.275-.9s-.077.43-.077.822V35.73c0 .86-.394 1.412-1.022 1.766h5.813c-.627-.354-1.02-.904-1.02-1.767V12.56c0-.904.392-1.453 1.02-1.767h-5.065l-8.52 20.144zM112.297 12.678c1.02.08 1.65.902 2.043 1.53l-.04-3.416H93.644v3.417c.354-.63 1.1-1.532 2.042-1.532 0 0 3.495-.275 6.44-.275V35.73c0 .86-.355 1.412-1.022 1.766h5.812c-.63-.354-1.02-.904-1.02-1.767V12.402c2.867 0 6.4.275 6.4.275zM49.552 10.533c-10.052 0-15.12 7.108-15.12 13.785 0 8.207 6.913 13.626 14.648 13.626 2.944 0 8.404-1.02 11.664-3.022-.04-.08-.55-.865-.55-1.688V28.01c0-.865.432-1.415 1.06-1.767h-5.81c.587.352 1.02.902 1.02 1.767v6.36c-2.552 1.73-5.537 1.846-6.715 1.846-8.208 0-11.193-6.753-11.193-12.408 0-6.363 3.81-11.625 11.35-11.625 1.845 0 7.146.865 9.228 6.48 0-.078-.275-5.89-.275-5.89-3.142-1.335-6.088-2.24-9.308-2.24z"/></g></svg>