<svg xmlns="http://www.w3.org/2000/svg" xmlns:xlink="http://www.w3.org/1999/xlink" version="1.1" id="Calque_1" fill="#ffffff" x="0px" y="0px" viewBox="6.972 0.446 88.379 100" enable-background="new 6.972 0.446 88.379 100" xml:space="preserve">
                <path d="M36.833,16.083C16.54,22.596,3.51,44.376,7.784,64.64c3.511,16.618,19.924,25.781,36.597,20.431  c16.669-5.349,27.38-23.229,23.872-39.837c-2.734-12.952-15.576-20.082-28.622-15.895c-12.916,4.144-21.195,18.053-18.452,31.01  c1.961,9.301,11.116,14.441,20.398,11.469C50.87,68.821,56.831,58.835,54.86,49.53c-1.201-5.74-6.672-8.785-12.44-6.937  c-5.522,1.769-9.047,7.812-7.864,13.456c0.417,1.957,2.171,2.902,4.176,2.262c2.083-0.665,3.404-2.669,3.008-4.566  c-0.368-1.73,0.646-3.686,2.156-4.17c1.708-0.547,3.409,0.46,3.793,2.265c1.146,5.451-2.258,11.278-7.581,12.998  c-5.327,1.703-10.606-1.335-11.759-6.789c-1.921-9.109,3.809-18.855,12.756-21.734c9.085-2.914,18.042,2.118,19.959,11.226  c2.697,12.769-5.45,26.47-18.16,30.542c-12.704,4.085-25.235-2.978-27.922-15.74c-3.467-16.428,6.99-34.047,23.324-39.283  c16.32-5.235,32.429,3.853,35.897,20.266c4.236,20.078-8.55,41.618-28.501,48.015c-5.982,1.929-12.276,2.285-18.692,1.072  c-0.927-0.263-2.007-0.105-2.917,0.467c-0.862,0.523-1.486,1.352-1.728,2.272c-0.149,0.583-0.173,1.188-0.047,1.771  c0.289,1.352,1.247,2.307,2.505,2.494c7.142,1.679,14.89,1.299,22.349-1.097c23.914-7.67,39.262-33.384,34.215-57.305  C77.11,20.757,57.122,9.568,36.833,16.083z"/>
                <path d="M95.274,35.577C92.559,22.718,84.947,12.235,73.835,6.056c-11.119-6.177-24.402-7.302-37.39-3.129  c-1.995,0.644-3.286,2.744-2.879,4.688c0.411,1.946,2.343,3.018,4.371,2.36c11.013-3.537,22.297-2.597,31.761,2.678  c9.499,5.282,16.002,14.248,18.327,25.256c0.326,1.556,1.649,2.543,3.188,2.543c0.383,0,0.781-0.056,1.177-0.184  C94.396,39.621,95.688,37.526,95.274,35.577z"/>
            </svg>