<svg xmlns="http://www.w3.org/2000/svg" fill="#fff" viewBox="6.972 0.446 88.379 100" enable-background="new 6.972 0.446 88.379 100"><path d="M36.833 16.083C16.54 22.596 3.51 44.376 7.783 64.64c3.512 16.618 19.925 25.78 36.598 20.43 16.67-5.348 27.38-23.228 23.873-39.836C65.52 32.282 52.677 25.152 39.63 29.34 26.716 33.482 18.437 47.39 21.18 60.35c1.96 9.3 11.115 14.44 20.397 11.468C50.87 68.82 56.83 58.835 54.86 49.53c-1.2-5.74-6.672-8.785-12.44-6.937-5.522 1.77-9.047 7.812-7.864 13.456.417 1.956 2.17 2.9 4.176 2.26 2.083-.664 3.404-2.668 3.008-4.565-.368-1.73.646-3.686 2.156-4.17 1.708-.547 3.41.46 3.793 2.265 1.145 5.45-2.26 11.278-7.582 12.998-5.327 1.703-10.606-1.335-11.76-6.79-1.92-9.108 3.81-18.854 12.757-21.733 9.085-2.914 18.042 2.118 19.96 11.226 2.696 12.77-5.45 26.47-18.16 30.543-12.705 4.085-25.236-2.978-27.923-15.74-3.467-16.428 6.99-34.047 23.324-39.283 16.32-5.235 32.43 3.853 35.897 20.266 4.236 20.078-8.55 41.618-28.5 48.015-5.983 1.93-12.277 2.286-18.693 1.073-.927-.263-2.007-.105-2.917.467-.862.523-1.486 1.352-1.728 2.272-.15.583-.173 1.188-.047 1.77.29 1.353 1.247 2.308 2.505 2.495 7.142 1.68 14.89 1.3 22.35-1.097 23.913-7.67 39.26-33.384 34.214-57.305C77.11 20.757 57.122 9.568 36.833 16.083zM95.274 35.577c-2.715-12.86-10.327-23.342-21.44-29.52-11.118-6.178-24.4-7.303-37.39-3.13-1.994.644-3.285 2.744-2.878 4.688.41 1.946 2.343 3.018 4.37 2.36C48.95 6.438 60.235 7.378 69.7 12.653 79.198 17.935 85.7 26.9 88.025 37.91c.326 1.555 1.65 2.542 3.188 2.542.383 0 .78-.056 1.177-.184 2.006-.647 3.298-2.742 2.884-4.69z"/></svg>